<svg xmlns="http://www.w3.org/2000/svg" viewBox="0 0 540.98551 640.00951"><defs><style>.cls-1,.cls-7{fill:#a37145;}.cls-1,.cls-2,.cls-3,.cls-4,.cls-5,.cls-6,.cls-7{stroke:#1d1d1b;stroke-width:4px;}.cls-1,.cls-2,.cls-3,.cls-4,.cls-5,.cls-6{stroke-linecap:round;stroke-linejoin:round;}.cls-2,.cls-8{fill:#6e4d32;}.cls-3{fill:#562413;}.cls-4{fill:#fff;}.cls-5{fill:#9d6133;}.cls-6{fill:#573d2c;}.cls-7{stroke-miterlimit:10;}</style></defs><title>coffre_ouvert</title><g id="Calque_1" data-name="Calque 1"><rect class="cls-1" x="102" y="269.0095" width="369" height="369"/><rect class="cls-2" x="128.01124" y="293.88274" width="319.25351" height="319.25351"/><path class="cls-3" d="M470,266.11407H101L1,144.22405l359.99625.55728Z" transform="translate(1 2.89545)"/><path class="cls-4" d="M441.142,258.61407H117.55181L29.858,151.72405l315.69448.4887Q393.34725,205.41342,441.142,258.61407Z" transform="translate(1 2.89545)"/><polygon class="cls-5" points="2 516.119 2 147.119 102 269.01 102 638.01 2 516.119"/><path class="cls-2" d="M11.40425,498.5432l1.53192-319.40426q38.28723,47.98287,76.57447,95.96579V590.45812Z" transform="translate(1 2.89545)"/><polygon class="cls-6" points="346.552 155.108 346.552 261.51 442.142 261.51 346.552 155.108"/><polygon class="cls-6" points="30.858 154.619 346.552 155.108 346.552 261.51 118.552 261.51 30.858 154.619"/><polygon class="cls-3" points="447.265 613.136 432.915 598.715 432.915 293.883 447.265 293.883 447.265 613.136"/><polygon class="cls-3" points="128.011 613.136 447.265 613.136 432.915 598.715 128.011 598.715 128.011 613.136"/><path class="cls-3" d="M11.40425,498.5432H25.04781l1.165-302.8085-13.6759-16.59576Z" transform="translate(1 2.89545)"/><path class="cls-3" d="M89.51064,590.45812,11.40425,498.5432H25.04781l64.46283,77.3617Z" transform="translate(1 2.89545)"/></g><g id="Calque_4" data-name="Calque 4"><path class="cls-7" d="M528.54768,413.76672,245.86125,176.5972q8.35664-87.75289,16.71329-175.50578l275.36209,231.891Q533.24217,323.37461,528.54768,413.76672Z" transform="translate(1 2.89545)"/><path class="cls-8" d="M513.29637,390.10328,263.02929,180.13309q7.39827-77.68911,14.79656-155.37823L521.60857,230.05192Q517.45248,310.07761,513.29637,390.10328Z" transform="translate(1 2.89545)"/><polygon class="cls-3" points="263.575 3.987 243.245 28.218 226.531 203.724 246.861 179.493 263.575 3.987"/><rect class="cls-3" x="361.22452" y="122.79768" width="31.6301" height="369" transform="translate(-99.7143 401.52736) rotate(-50.00387)"/><path class="cls-3" d="M521.60857,230.05191,509.46751,244.523q-3.55045,68.20516-7.10091,136.41036l10.92975,9.16989Z" transform="translate(1 2.89545)"/><path class="cls-3" d="M277.82586,24.75485,521.60857,230.05191,509.46751,244.523,275.631,47.803Q276.72842,36.27893,277.82586,24.75485Z" transform="translate(1 2.89545)"/></g></svg>