<svg xmlns="http://www.w3.org/2000/svg" viewBox="0 0 473 520.44321"><defs><style>.cls-1,.cls-7{fill:#a37145;}.cls-1,.cls-2,.cls-3,.cls-4,.cls-5,.cls-6,.cls-9{stroke:#1d1d1b;stroke-linecap:round;stroke-linejoin:round;}.cls-1,.cls-2,.cls-3,.cls-4,.cls-5,.cls-6{stroke-width:4px;}.cls-2,.cls-8{fill:#6e4d32;}.cls-3,.cls-9{fill:#562413;}.cls-4{fill:#fff;}.cls-5{fill:#9d6133;}.cls-6{fill:#573d2c;}.cls-9{stroke-width:2px;}</style></defs><title>coffre_fermer</title><g id="Calque_1" data-name="Calque 1"><rect class="cls-1" x="102" y="149.44319" width="369" height="369"/><rect class="cls-2" x="128.01124" y="174.31644" width="319.25351" height="319.25351"/><path class="cls-3" d="M470,266.11407H101L1,144.22405l359.99625.55728Z" transform="translate(1 -116.67086)"/><path class="cls-4" d="M441.142,258.61407H117.55181L29.858,151.72405l315.69448.4887Q393.34725,205.41342,441.142,258.61407Z" transform="translate(1 -116.67086)"/><polygon class="cls-5" points="2 396.553 2 27.553 102 149.443 102 518.443 2 396.553"/><path class="cls-2" d="M11.40425,498.5432l1.53192-319.40426q38.28723,47.98287,76.57447,95.96579V590.45812Z" transform="translate(1 -116.67086)"/><polygon class="cls-6" points="346.552 35.542 346.552 141.943 442.142 141.943 346.552 35.542"/><polygon class="cls-6" points="30.858 35.053 346.552 35.542 346.552 141.943 118.552 141.943 30.858 35.053"/><polygon class="cls-3" points="447.265 493.57 432.915 479.149 432.915 174.316 447.265 174.316 447.265 493.57"/><polygon class="cls-3" points="128.011 493.57 447.265 493.57 432.915 479.149 128.011 479.149 128.011 493.57"/><path class="cls-3" d="M11.40425,498.5432H25.04781l1.165-302.8085-13.6759-16.59576Z" transform="translate(1 -116.67086)"/><path class="cls-3" d="M89.51064,590.45812,11.40425,498.5432H25.04781l64.46283,77.3617Z" transform="translate(1 -116.67086)"/></g><g id="Calque_3" data-name="Calque 3"><path class="cls-7" d="M470,239.56087H101q-50-60.945-100-121.89l359.99625.55728Q415.49814,178.8945,470,239.56087Z" transform="translate(1 -116.67086)"/><path class="cls-8" d="M443.10682,232.57151H116.42488L27.89318,124.66022l318.71077.49337Q394.85539,178.86255,443.10682,232.57151Z" transform="translate(1 -116.67086)"/><polygon class="cls-9" points="2 1 2 27.553 102 149.443 102 122.89 2 1"/><rect class="cls-9" x="102" y="122.89001" width="369" height="26.55319"/><path class="cls-9" d="M346.60394,125.15359v15.85769q41.11794,45.78012,82.2359,91.56024h14.267Z" transform="translate(1 -116.67086)"/><path class="cls-9" d="M27.89318,124.66021l318.71076.49338v15.85769l-305.57835-.344Q34.45938,132.66377,27.89318,124.66021Z" transform="translate(1 -116.67086)"/></g></svg>