<svg id="Calque_1" data-name="Calque 1" xmlns="http://www.w3.org/2000/svg" viewBox="0 0 1766.75349 383.63484"><defs><style>.cls-1{fill:#595645;stroke:#1d1d1b;stroke-miterlimit:10;stroke-width:4.79967px;}</style></defs><title>barreDeVie</title><path class="cls-1" d="M1255.76374,280.60278c63.94312-17.08191,101.30571-62.24563,90.90767-105.633-11.85253-49.45631-83.26989-86.20877-161.42261-78.36486a643.22554,643.22554,0,0,1,83.43167-24.84426c81.72674-18.512,154.89042-19.03416,204.88889-16.12243,19.23959,1.58057,57.61244,2.79239,100.16479-9.93027a215.82491,215.82491,0,0,0,58.51442-27.11574q19.39566-3.89928,38.79115-7.79859a26.14719,26.14719,0,0,1-1.53752,13.37585c-5.35919,13.72033-20.797,20.80727-25.35031,22.73655q-26.74055,7.02678-25.84858,10.58664,1.22591,4.88909,54.57518,3.23827c2.92495.403,23.2247,2.94743,40.596-7.01814,14.57218-8.35976,17.23156-19.87076,17.746-22.51441,5.497-7.91943,16.15225-11.70572,22.94877-10.08534,8.03086,1.91473,14.29326,12.24181,6.87245,22.62848a173.57884,173.57884,0,0,1-45.95588,28.92079c-54.833,23.94315-112.07567,19.34287-131.75447,17.09628a400.39753,400.39753,0,0,0-116.09927.12737,358.58382,358.58382,0,0,0-79.10216,21.05206c1.33892,13.61263,5.63257,34.52487,20.2828,57.73148,11.92757,18.89384,20.72966,32.83671,41.2579,42.69439,30.899,14.8377,68.583,10.92064,114.69391,6.12766a491.69521,491.69521,0,0,0,73.52179-13.2766c4.02378-3.08027,32.62524-24.278,74.257-21.95744a109.94758,109.94758,0,0,1,39.70175,9.70213,149.13144,149.13144,0,0,1-13.96917,16.34043,176.6089,176.6089,0,0,1-22.79164,19.40425c-16.32272,4.05931-36.15831,8.91556-58.81742,14.29788-39.10049,9.28775-58.65064,13.93161-63.964,14.8085-37.55224,6.19757-54.66605,4.14566-63.22875,13.78723a16.01108,16.01108,0,0,0-.73519,20.42554c10.25015,13.83264,42.43072,13.40607,52.20035,13.27658,38.32241-.508,65.65209-17.859,75.72754-25.02127,1.72839,3.8555,8.57149,20.56686-4.41133,34.72342-14.59908,15.919-43.88,17.2804-56.61185,17.87234-31.058,1.444-54.433-7.3464-93.84826-22.6332a556.75712,556.75712,0,0,1-65.69392-30.47318,238.98421,238.98421,0,0,1-68.29091,16.34525A258.48113,258.48113,0,0,1,1255.76374,280.60278Z"/><path class="cls-1" d="M912.56539,85.37089c63.94313,17.08191,101.3057,62.24563,90.90763,105.633-11.85253,49.45631-83.26989,86.20877-161.42258,78.36486A643.22472,643.22472,0,0,0,925.48206,294.213c81.72682,18.512,154.89038,19.03417,204.889,16.12243,19.23953-1.58057,57.61244-2.79238,100.16473,9.93028a215.82566,215.82566,0,0,1,58.5144,27.11573q19.39562,3.89929,38.79113,7.79859a26.14564,26.14564,0,0,0-1.53755-13.37585c-5.35922-13.72032-20.79691-20.80727-25.35033-22.73655q-26.74053-7.02677-25.84843-10.58663,1.2257-4.88908,54.575-3.23827c2.925-.403,23.22476-2.94744,40.59615,7.01814,14.57212,8.35976,17.23153,19.87076,17.74592,22.51441,5.497,7.91942,16.15226,11.70572,22.94869,10.08533,8.03092-1.91472,14.29342-12.24181,6.87254-22.62847a173.5785,173.5785,0,0,0-45.95591-28.92079c-54.833-23.94315-112.07564-19.34287-131.75444-17.09629a400.39706,400.39706,0,0,1-116.09927-.12736,358.58449,358.58449,0,0,1-79.1022-21.05207c7.72454-11.1333,19.17806-31.3257,20.28274-57.73148,1.19436-28.54844-10.28474-50.56517-17.66375-62.08632a83.798,83.798,0,0,1,34.01836-24.76289c26.7742-10.80261,50.03238-5.82723,81.7169-8.58945,21.7245-1.8939,51.7645-7.805,86.44436-25.927,17.80577-2.32113,58.29315-9.54241,88.80805-34.59571a103.503,103.503,0,0,0,19.06145-20.31738c-1.83828-1.45945-12.61781-9.73572-30.61752-10.21074s-29.65255,7.20926-31.64492,8.56762c-3.9157,4.76958-11.52036,12.63061-24.685,19.49734a111.289,111.289,0,0,1-31.75491,10.57958c-1.28467.25946-19.95006,3.82044-30.94792-4.17484a17.12718,17.12718,0,0,1-5.33-6.1853,24.08272,24.08272,0,0,1-4.92646-13.56249,23.20941,23.20941,0,0,1,3.52722-12.66776c-2.144-.23356-14.60017-1.44022-25.76443,4.693-12.19457,6.69925-12.97568,16.73192-13.05073,18.12794.5938,1.39761,4.58542,11.41264-4.208,21.04252-8.88876,9.73413-23.61835,11.1649-25.62517,11.33488a1078.5931,1078.5931,0,0,0-108.35973,2.79306A1054.099,1054.099,0,0,0,912.56539,85.37089Z"/><path class="cls-1" d="M549.36786,276.4401c63.94313-17.0819,101.3057-62.24563,90.90763-105.633C628.423,121.35077,557.0056,84.5983,478.85291,92.44221A643.22629,643.22629,0,0,1,562.28453,67.598c81.72682-18.512,154.89038-19.03416,204.889-16.12243,19.23952,1.58057,57.61243,2.79239,100.16473-9.93028a215.82527,215.82527,0,0,0,58.51439-27.11573L964.6438,6.63093a26.1455,26.1455,0,0,1-1.53754,13.37585c-5.35923,13.72033-20.79692,20.80727-25.35034,22.73655Q911.01539,49.77011,911.90749,53.33q1.22571,4.88909,54.575,3.23827c2.925.403,23.22476,2.94744,40.59616-7.01813,14.57211-8.35976,17.23152-19.87077,17.74592-22.51442,5.49695-7.91942,16.15225-11.70572,22.94868-10.08533,8.03093,1.91473,14.29342,12.24181,6.87254,22.62848a173.57851,173.57851,0,0,1-45.95591,28.92078c-54.833,23.94315-112.07564,19.34288-131.75444,17.09629a400.39742,400.39742,0,0,0-116.09927.12736,358.58561,358.58561,0,0,0-79.1022,21.05207c7.72454,11.1333,19.17806,31.3257,20.28274,57.73148,1.19437,28.54844-10.28474,50.56517-17.66374,62.08632A83.79785,83.79785,0,0,0,718.37135,251.356c26.7742,10.80261,50.03238,5.82723,81.7169,8.58945,21.7245,1.89391,51.7645,7.805,86.44436,25.927,17.80578,2.32114,58.29315,9.54242,88.808,34.59571a103.50314,103.50314,0,0,1,19.06146,20.31739c-1.83829,1.45945-12.61782,9.73571-30.61752,10.21074s-29.65256-7.20926-31.64492-8.56763c-3.91571-4.76958-11.52037-12.6306-24.685-19.49734a111.28936,111.28936,0,0,0-31.75491-10.57958c-1.28466-.25945-19.95006-3.82044-30.94792,4.17484a17.12722,17.12722,0,0,0-5.32995,6.18531,24.08272,24.08272,0,0,0-4.92646,13.56248,23.20948,23.20948,0,0,0,3.52722,12.66777c-2.144.23355-14.60017,1.44022-25.76442-4.693-12.19458-6.69925-12.97569-16.73191-13.05073-18.12793.59379-1.39762,4.58541-11.41264-4.208-21.04252-8.88876-9.73414-23.61835-11.16491-25.62517-11.33489a1078.59293,1078.59293,0,0,1-108.35973-2.793A1054.10177,1054.10177,0,0,1,549.36786,276.4401Z"/><path class="cls-1" d="M224.1227,114.76273c2.50088,1.92748,37.67672,29.9991,33.848,74.13308-3.04685,35.12118-29.49668,65.45608-65.96494,74.73883,42.69632,4.30111,88.68756,10.18624,137.303,18.21557,59.80695,9.87769,114.141,21.44055,162.5972,33.41883,15.75256,2.90853,41.82471,9.22586,68.17444,23.59344,23.0841,12.587,37.22253,26.35846,45.21661,35.592q14.83474-10.59714,29.66956-21.19434a73.82048,73.82048,0,0,0-14.61121-15.06054c-18.22021-14.26941-40.50287-19.65445-51.79211-21.747,2.59845-2.32727,9.23028-7.60135,20.61291-10.26569a63.72086,63.72086,0,0,1,33.84082,1.72,134.1825,134.1825,0,0,1,41.57593,6.92658c18.39447,6.2887,29.41034,15.08859,34.63263,19.89008q11.17767,16.42263,15.74585,15.57965,5.94754-1.09831.68829-31.47248c-24.54382-12.66363-68.86316-31.776-130.12237-39.11624a429.11626,429.11626,0,0,0-76.92859-2.19882A592.90336,592.90336,0,0,1,421.169,259.50982a527.694,527.694,0,0,1-70.4714-25.68c-8.34864-9.0501-19.5181-23.67141-25.09522-43.10489-7.99609-27.86251-.23209-50.75749,4.90234-62.20816a89.39961,89.39961,0,0,1,36.33545-23.6449c28.05356-9.93063,51.523-4.21087,84.09336-5.95033,22.33175-1.19266,53.41806-6.131,90.0137-23.11978,18.35174-1.74567,60.20239-7.65663,92.97388-31.70449a109.48319,109.48319,0,0,0,20.76361-19.685C652.89656,22.895,642.39326,14.27916,624.01839,13.225s-30.77131,6.24784-32.89368,7.54084c-4.30267,4.63912-12.57105,12.24809-26.46216,18.68465a118.78893,118.78893,0,0,1-33.13232,9.54743c-1.32984.21784-20.63819,3.17454-31.38227-5.16755a16.49217,16.49217,0,0,1-5.06219-6.35127,23.09379,23.09379,0,0,1-4.18726-13.70875A23.45839,23.45839,0,0,1,495.299,11.22768c-2.17768-.30235-14.83832-1.909-26.63819,3.85917-12.88876,6.30044-14.31607,16.2988-14.48034,17.69111a32.71221,32.71221,0,0,1-5.6215,20.88781,46.972,46.972,0,0,1-11.06213,11.487c-26.7525,2.79268-56.72464,7.10264-88.9,13.7557A830.88291,830.88291,0,0,0,224.1227,114.76273Z"/><path class="cls-1" d="M40.742,131.95648C31.36275,139.79574,8.749,160.80987,3.49006,192.448c-5.27292,31.72244,9.9451,55.8162,16.51864,64.92322a219.11262,219.11262,0,0,0,30.83385,17.93121c43.56928,20.9075,88.64835,26.15234,115.98665,27.53044a205.46189,205.46189,0,0,1,41.26807,19.87668c32.71884,20.80116,46.96681,44.84285,53.18488,58.27222l37.54969-5.92686c-12.02807-10.07072-26.20422-25.082-33.43007-45.01723a79.44309,79.44309,0,0,1-3.38329-12.31578,28.48677,28.48677,0,0,1,12.58125-5.7986c17.07464-3.19854,40.36572,8.29742,56.37607,29.28412q-1.899-12.56735-3.79794-25.13468c-.26234-1.76262-5.72457-33.56165-43.13991-44.90086-15.06664-4.56615-29.32275-3.99869-37.43884-3.158a456.1997,456.1997,0,0,1-71.86926-7.15361,415.65157,415.65157,0,0,1-69.51414-18.80343C97.241,237.58527,85.66928,229.66052,79.02947,217.658c-12.32769-22.28434-2.56862-49.09462,23.84061-70.01546,6.10863-5.88522,29.12817-26.55375,70.82421-32.97524a167.22067,167.22067,0,0,1,57.05741,1.25313c5.67442.6552,23.41272,2.17481,40.35924-5.09224,19.16789-8.21964,29.673-24.40007,27.24079-41.5365L281.88378,52.85805c-.41769,2.4574-4.33285,22.50078-31.1809,33.90275-27.8936,11.846-56.53081,4.16761-59.54031,3.3184L193.549,70.01331c8.03942-1.87868,28.1447-7.40664,44.274-21.70333,14.82579-13.14127,18.35318-26.65411,19.38589-32.55916L207.36161,2.78965a93.16946,93.16946,0,0,1-17.1501,21.9126c-14.308,13.705-30.87359,21.96017-41.94176,26.55112C93.2058,81.0184,63.23005,113.16074,40.742,131.95648Z"/></svg>