<svg id="Calque_1" data-name="Calque 1" xmlns="http://www.w3.org/2000/svg" viewBox="0 0 1227.74793 383.11479"><defs><style>.cls-1{fill:#595645;stroke:#1d1d1b;stroke-miterlimit:10;stroke-width:4px;}</style></defs><title>Sans titre - 2</title><path class="cls-1" d="M871.51174,279.09634c44.41107-17.08191,70.3609-62.24562,63.139-105.633-8.23206-49.45632-57.83429-86.20878-112.1145-78.36487a352.53452,352.53452,0,0,1,57.94665-24.84425C937.24544,51.7422,988.06057,51.22,1022.78652,54.13178A135.90875,135.90875,0,0,0,1092.355,44.2015a136.44343,136.44343,0,0,0,40.64063-27.11573q13.47107-3.89929,26.942-7.79859a37.004,37.004,0,0,1-1.06787,13.37585c-3.72217,13.72032-14.44433,20.80726-17.60681,22.73655q-18.57238,7.02677-17.95288,10.58663.85145,4.88909,37.90466,3.23827c2.0315.403,16.1305,2.94744,28.19556-7.01813a35.97867,35.97867,0,0,0,12.32532-22.51442c3.81787-7.91942,11.21838-11.70572,15.93884-10.08533,5.57776,1.91472,9.92725,12.24181,4.77319,22.62847a125.72774,125.72774,0,0,1-31.91821,28.92079c-38.08374,23.94315-77.84106,19.34288-91.50879,17.09629a192.54013,192.54013,0,0,0-135.57526,21.17943,173.10364,173.10364,0,0,0,14.08722,57.73147c8.28418,18.89385,14.39759,32.83672,28.65528,42.6944,21.46057,14.83769,47.63366,10.92064,79.65954,6.12765a250.14247,250.14247,0,0,0,51.06385-13.27659c2.79467-3.08028,22.65954-24.278,51.57446-21.95745a58.76076,58.76076,0,0,1,27.57446,9.70214,148.46614,148.46614,0,0,1-25.53186,35.74467c-11.33679,4.05931-25.1134,8.91556-40.85107,14.29788-27.15686,9.28775-40.73523,13.93161-44.42554,14.80851-26.08154,6.19757-37.96777,4.14566-43.91492,13.78723-3.86511,6.266-3.48242,14.65127-.51062,20.42553,7.11914,13.83265,29.46985,13.40607,36.25525,13.27659,26.61646-.508,45.598-17.859,52.59583-25.02128,1.20044,3.8555,5.95324,20.56687-3.06385,34.72342-10.13964,15.919-30.47644,17.2804-39.31921,17.87235-21.571,1.444-37.80591-7.34641-65.1814-22.63321a347.86275,347.86275,0,0,1-45.62707-30.47318A126.702,126.702,0,0,1,949.055,293.607C911.77724,298.5017,882.77,285.08111,871.51174,279.09634Z" transform="translate(1 1.28322)"/><path class="cls-1" d="M633.14666,83.86446c44.41108,17.0819,70.36089,62.24563,63.139,105.633-8.23206,49.4563-57.8343,86.20876-112.11449,78.36485A352.53362,352.53362,0,0,0,642.1178,292.7066c56.76257,18.512,107.57761,19.03416,142.30368,16.12243a134.60286,134.60286,0,0,1,110.20905,37.046q13.471,3.89928,26.942,7.79859a37.00158,37.00158,0,0,0-1.06789-13.37585c-3.72219-13.72033-14.44429-20.80727-17.60683-22.73655q-18.57237-7.02678-17.95277-10.58663.8513-4.8891,37.90456-3.23828c2.03152-.403,16.13053-2.94743,28.19566,7.01814a35.97854,35.97854,0,0,1,12.32526,22.51442c3.81785,7.91942,11.21839,11.70571,15.93879,10.08533,5.5778-1.91473,9.92735-12.24181,4.77325-22.62848a125.72806,125.72806,0,0,0-31.91823-28.92079c-38.08371-23.94314-77.841-19.34287-91.50877-17.09628a194.2637,194.2637,0,0,1-80.63562-.12736,192.90138,192.90138,0,0,1-54.93966-21.05208,142.35664,142.35664,0,0,0,1.819-119.81779c4.36282-7.65156,11.68648-17.82644,23.62712-24.76289,18.59576-10.80262,34.7495-5.82724,56.75568-8.58946,15.08854-1.8939,35.95253-7.805,60.03909-25.927,12.36683-2.32114,40.487-9.54242,61.68077-34.59571A98.53865,98.53865,0,0,0,942.24088,19.519a29.61192,29.61192,0,0,0-43.24377-1.64311,64.17241,64.17241,0,0,1-17.14473,19.49734,62.3844,62.3844,0,0,1-22.05506,10.57958c-.89225.25945-13.85612,3.82044-21.49458-4.17484a16.74835,16.74835,0,0,1-3.70187-6.18531,30.9332,30.9332,0,0,1-.97182-26.23025,23.58248,23.58248,0,0,0-17.89443,4.693c-8.46963,6.69926-9.01214,16.73192-9.06426,18.12794a26.58251,26.58251,0,0,1-2.92262,21.04252A25.38546,25.38546,0,0,1,785.95,66.56079,521.79622,521.79622,0,0,0,633.14666,83.86446Z" transform="translate(1 1.28322)"/><path class="cls-1" d="M380.89134,274.93367c44.41108-17.08191,70.36089-62.24563,63.139-105.633-8.23206-49.45631-57.8343-86.20877-112.11449-78.36486a352.53338,352.53338,0,0,1,57.94663-24.84426c56.76256-18.512,107.5776-19.03416,142.30367-16.12242a135.90872,135.90872,0,0,0,69.56844-9.93028,136.44369,136.44369,0,0,0,40.64061-27.11573q13.471-3.8993,26.942-7.7986a37.00177,37.00177,0,0,1-1.06788,13.37585c-3.7222,13.72033-14.4443,20.80727-17.60684,22.73655q-18.57237,7.02678-17.95277,10.58663.8513,4.8891,37.90456,3.23828c2.03152.403,16.13053,2.94743,28.19566-7.01814A35.97854,35.97854,0,0,0,711.1152,25.52925c3.81785-7.91943,11.21839-11.70572,15.93879-10.08534,5.5778,1.91473,9.92735,12.24181,4.77325,22.62848A125.72788,125.72788,0,0,1,699.909,66.99318c-38.08371,23.94314-77.841,19.34287-91.50877,17.09628A192.54014,192.54014,0,0,0,472.825,105.2689a142.35666,142.35666,0,0,1,1.819,119.8178c4.36283,7.65156,11.68648,17.82643,23.62712,24.76289,18.59576,10.80261,34.7495,5.82723,56.75568,8.58945,15.08854,1.8939,35.95253,7.805,60.0391,25.927,12.36682,2.32113,40.48694,9.54241,61.68076,34.5957a98.53891,98.53891,0,0,1,13.23895,20.31739,29.61193,29.61193,0,0,1-43.24377,1.64312,64.17218,64.17218,0,0,0-17.14473-19.49734A62.38429,62.38429,0,0,0,607.542,310.84528c-.89225-.25945-13.85612-3.82043-21.49458,4.17484a16.74835,16.74835,0,0,0-3.70187,6.18531,30.9332,30.9332,0,0,0-.97182,26.23025,23.58244,23.58244,0,0,1-17.89443-4.693c-8.46963-6.69926-9.01214-16.73192-9.06426-18.12794a26.58251,26.58251,0,0,0-2.92262-21.04252,25.38544,25.38544,0,0,0-17.79771-11.33488,521.16466,521.16466,0,0,1-75.2602-2.79306A522.75417,522.75417,0,0,1,380.89134,274.93367Z" transform="translate(1 1.28322)"/><path class="cls-1" d="M154.99545,113.25629c2.791,1.75084,39.47406,25.62072,40.156,68.06986.57524,35.80486-24.71065,69.38892-62.46254,80.80206,29.65432,4.3011,61.59708,10.18623,95.36248,18.21556A1086.18626,1086.18626,0,0,1,340.98174,313.7626,130.9812,130.9812,0,0,1,419.73641,372.948q10.30331-10.59719,20.60666-21.19435A69.15591,69.15591,0,0,0,430.195,336.69315c-12.65467-14.26942-28.13087-19.65447-35.9717-21.747a30.685,30.685,0,0,1,14.3165-10.26568c11.52182-3.883,21.40676.69074,23.50383,1.72a67.43954,67.43954,0,0,1,52.92991,26.81666q7.76331,16.42263,10.93609,15.57965,4.13083-1.09835.47806-31.4725a212.60529,212.60529,0,0,0-90.37521-39.11623,207.67189,207.67189,0,0,0-53.43-2.19881,304.95,304.95,0,0,1-60.73041-18.00593,304.83766,304.83766,0,0,1-48.94523-25.68,124.99916,124.99916,0,0,1-14.02476-105.313c4.794-7.44231,12.72538-17.26836,25.23644-23.64489,19.48432-9.93063,35.78482-4.21088,58.40622-5.95034,15.5103-1.19265,37.101-6.131,62.51815-23.11978,12.746-1.74567,41.813-7.65662,64.57411-31.70449a98.08963,98.08963,0,0,0,14.42114-19.685,30.80059,30.80059,0,0,0-44.145-3.64648A64.44689,64.44689,0,0,1,391.5141,37.944a64.41454,64.41454,0,0,1-23.01171,9.54744c-.92362.21784-14.33406,3.17453-21.79625-5.16756a16.72621,16.72621,0,0,1-3.51591-6.35126,30.29861,30.29861,0,0,1,.14814-26.2514,24.56,24.56,0,0,0-18.50131,3.85916c-8.95176,6.30044-9.9431,16.29881-10.05719,17.69112a44.388,44.388,0,0,1-3.90434,20.8878,43.70489,43.70489,0,0,1-7.68311,11.487,451.52348,451.52348,0,0,0-148.197,49.60992Z" transform="translate(1 1.28322)"/><path class="cls-1" d="M27.63017,130.45a115.33934,115.33934,0,0,0-14.4001,125.41474A151.81067,151.81067,0,0,0,34.64542,273.796c30.26062,20.9075,61.56985,26.15234,80.5574,27.53044a130.40462,130.40462,0,0,1,28.66234,19.87668c22.72455,20.80117,32.62034,44.84286,36.939,58.27222l26.07978-5.92686a114.36466,114.36466,0,0,1-23.21854-45.01722,108.1606,108.1606,0,0,1-2.34983-12.31578,17.70544,17.70544,0,0,1,8.73819-5.7986c11.859-3.19854,28.03562,8.29741,39.15545,29.28411q-1.31894-12.56735-2.63782-25.13468c-.18221-1.76262-3.97595-33.56164-29.96241-44.90085a47.57257,47.57257,0,0,0-26.00278-3.158,223.67257,223.67257,0,0,1-98.19647-25.95705,58.80729,58.80729,0,0,1-18.1874-24.39885c-8.56208-22.28435-1.784-49.09463,16.55827-70.01547,4.24268-5.88522,20.23068-26.55374,49.19027-32.97524a81.43779,81.43779,0,0,1,39.62866,1.25314c3.94112.6552,16.26108,2.1748,28.03112-5.09225,13.31288-8.21963,20.6091-24.40006,18.91983-41.53649q-5.71884-8.21681-11.43766-16.43359c-.2901,2.45739-3.00934,22.50078-21.65639,33.90274-19.37323,11.846-39.26292,4.16761-41.35314,3.3184l1.65749-20.06588a66.07257,66.07257,0,0,0,30.7501-21.70334A65.93253,65.93253,0,0,0,177.9752,14.24439l-34.621-12.96117a96.93034,96.93034,0,0,1-11.91145,21.91259,98.03825,98.03825,0,0,1-29.13024,26.55113C64.0684,79.512,43.249,111.65431,27.63017,130.45Z" transform="translate(1 1.28322)"/></svg>