<svg xmlns="http://www.w3.org/2000/svg" viewBox="0 0 1089.58962 240.6377"><defs><style>.cls-1,.cls-5{fill:#8d704a;}.cls-1,.cls-2,.cls-3,.cls-4,.cls-5{stroke:#1d1d1b;stroke-miterlimit:10;}.cls-1,.cls-2,.cls-3{stroke-width:3.96551px;}.cls-2{fill:#d7d59f;}.cls-3{fill:#a59c6d;}.cls-4{fill:#402d21;}.cls-4,.cls-5{stroke-width:4.13286px;}</style></defs><title>inventaire</title><g id="Calque_1" data-name="Calque 1"><path class="cls-1" d="M1028.17288,229.98323c-155.64316,5.58978-320.966,8.817-495.0264,8.66668-165.47832-.14294-322.99254-3.32492-471.72976-8.66668-3.95832,0-25.01379-.22632-42.02617-9.963-10.75543-6.15564-17.4078-14.65958-17.4078-24.05277V71.98324H1087.60686V195.96748C1087.60686,214.75386,1060.99736,229.98323,1028.17288,229.98323Z"/><path class="cls-2" d="M992.13352,212.64991q-219.27036,5.8884-457.82223,6-226.99206-.14268-436.85518-6c-3.95363,0-24.98415-.226-41.97637-9.95117-10.74269-6.14834-17.38718-14.64221-17.38718-24.02426V102.26869c0-7.94252,11.25-14.38121,25.12756-14.38121h963.14931c13.87764,0,25.12758,6.43869,25.12758,14.38121v76.40579C1051.497,197.43858,1024.91908,212.64991,992.13352,212.64991Z"/><path class="cls-1" d="M1040.983,23.98324c-142.10966-12.67772-310.00852-22.078-498.51791-22-186.56145.0772-352.857,9.42113-493.8585,22-3.10514,0-19.62245.17752-32.96806,7.8156C7.20129,36.62773,1.98275,43.29876,1.98275,50.66739V71.98324H1087.60686V50.66739C1087.60686,35.93014,1066.73266,23.98324,1040.983,23.98324Z"/><path class="cls-3" d="M862.08782,71.98324a212.01542,212.01542,0,0,0,6.05181-36.19154,205.99,205.99,0,0,0,.46166-24.47054,773.209,773.209,0,0,1,81.3694,1.52733A736.88683,736.88683,0,0,1,1030.60862,23.069a64.50011,64.50011,0,0,0-4.05182,14.056,62.50045,62.50045,0,0,0,4.45654,34.8582Z"/><path class="cls-3" d="M227.524,71.98324a212.01542,212.01542,0,0,1-6.05181-36.19154,205.99,205.99,0,0,1-.46166-24.47054,773.209,773.209,0,0,0-81.3694,1.52733A736.88683,736.88683,0,0,0,59.00317,23.069,64.49955,64.49955,0,0,1,63.055,37.125a62.50036,62.50036,0,0,1-4.45653,34.8582Z"/></g><g id="Calque_2" data-name="Calque 2"><rect class="cls-4" x="497.38419" y="25.86976" width="134.04741" height="85.23102" rx="38.62046"/><rect class="cls-5" x="517.81047" y="38.85735" width="93.19487" height="59.25585" rx="26.85041"/></g></svg>